<?xml version="1.0" encoding="utf-8"?>
<svg viewBox="0 0 57 25" width="57px" height="25px" fill="none" xmlns="http://www.w3.org/2000/svg">
  <path d="M 27.23 0.51 L 25.98 0.51 L 23.66 -3.24 L 21.8 -3.24 L 21.8 0.51 L 20.7 0.51 L 20.7 -7.89 L 23.73 -7.89 Q 24.93 -7.89 25.65 -7.26 Q 26.37 -6.62 26.37 -5.57 Q 26.37 -4.8 25.95 -4.23 Q 25.54 -3.66 24.81 -3.41 Z M 21.8 -6.92 L 21.8 -4.22 L 23.61 -4.22 Q 24.39 -4.22 24.82 -4.58 Q 25.25 -4.93 25.25 -5.57 Q 25.25 -6.2 24.82 -6.56 Q 24.39 -6.92 23.61 -6.92 Z M 30.36 -5.64 Q 31.47 -5.64 32.16 -5.03 Q 32.84 -4.41 32.84 -3.37 L 32.84 0.51 L 31.83 0.51 L 31.83 -0.53 Q 31.57 -0.01 31.02 0.3 Q 30.48 0.6 29.82 0.6 Q 28.92 0.6 28.35 0.1 Q 27.78 -0.39 27.78 -1.19 Q 27.78 -2.89 30.66 -3.18 L 31.83 -3.31 L 31.83 -3.43 Q 31.83 -4.05 31.43 -4.42 Q 31.03 -4.79 30.36 -4.79 Q 29.73 -4.79 29.33 -4.44 Q 28.92 -4.09 28.86 -3.48 L 27.91 -3.66 Q 28.04 -4.56 28.72 -5.1 Q 29.4 -5.64 30.36 -5.64 Z M 29.97 -0.24 Q 30.85 -0.24 31.34 -0.78 Q 31.83 -1.32 31.83 -2.23 L 31.83 -2.52 L 30.66 -2.39 Q 28.8 -2.18 28.8 -1.2 Q 28.8 -0.78 29.13 -0.51 Q 29.46 -0.24 29.97 -0.24 Z M 34.5 0.51 L 34.5 -5.54 L 35.52 -5.54 L 35.52 -4.4 Q 35.84 -4.97 36.38 -5.3 Q 36.92 -5.64 37.6 -5.64 Q 38.54 -5.64 39.15 -5.05 Q 39.76 -4.46 39.76 -3.5 L 39.76 0.51 L 38.74 0.51 L 38.74 -3.31 Q 38.74 -3.93 38.36 -4.32 Q 37.99 -4.71 37.37 -4.71 Q 36.52 -4.71 36.02 -4.02 Q 35.52 -3.33 35.52 -2.15 L 35.52 0.51 Z M 43.98 0.6 Q 42.61 0.6 41.84 -0.27 Q 41.07 -1.14 41.07 -2.52 Q 41.07 -3.9 41.83 -4.77 Q 42.6 -5.64 43.97 -5.64 Q 44.57 -5.64 45.12 -5.37 Q 45.66 -5.11 45.95 -4.68 L 45.95 -7.99 L 46.97 -7.99 L 46.97 0.51 L 45.95 0.51 L 45.95 -0.37 Q 45.75 0.05 45.19 0.33 Q 44.64 0.6 43.98 0.6 Z M 42.65 -0.92 Q 42.65 -0.92 42.92 -0.61 Q 43.19 -0.31 44.08 -0.31 Q 44.97 -0.31 45.51 -0.92 Q 46.05 -1.52 46.05 -2.52 Q 46.05 -3.51 45.51 -4.12 Q 44.97 -4.73 44.08 -4.73 Q 43.19 -4.73 42.65 -4.12 Q 42.11 -3.51 42.11 -2.52 Q 42.11 -1.52 42.65 -0.92 Z M 52.61 -5.54 L 53.65 -5.54 L 50.48 2.69 L 49.44 2.69 L 50.32 0.42 L 47.95 -5.54 L 49.06 -5.54 L 50.83 -0.91 Z" transform="matrix(1, 0, 0, 1, 3.246656, 10.473237)" style="fill: rgb(0, 0, 0);"/>
  <path transform="matrix(1, 0, 0, 1, 3.246656, 10.473237)" style="fill: rgb(0, 0, 0);"/>
  <path d="M 23.37 12.6 Q 22.16 12.6 21.27 11.89 Q 20.38 11.17 20.18 10.02 L 21.21 9.69 Q 21.33 10.56 21.94 11.1 Q 22.55 11.63 23.39 11.63 Q 24.26 11.63 24.77 11.25 Q 25.29 10.87 25.29 10.25 Q 25.29 9.73 24.93 9.38 Q 24.58 9.03 24.05 8.86 Q 23.52 8.7 22.9 8.5 Q 22.28 8.29 21.75 8.08 Q 21.22 7.86 20.87 7.38 Q 20.51 6.9 20.51 6.21 Q 20.51 5.23 21.3 4.62 Q 22.1 4.01 23.34 4.01 Q 24.5 4.01 25.31 4.58 Q 26.13 5.15 26.28 6.09 L 25.29 6.47 Q 25.16 5.79 24.65 5.38 Q 24.14 4.98 23.34 4.98 Q 22.54 4.98 22.08 5.31 Q 21.62 5.64 21.62 6.21 Q 21.62 6.59 21.88 6.85 Q 22.14 7.12 22.57 7.26 Q 23 7.41 23.51 7.54 Q 24.02 7.67 24.53 7.85 Q 25.04 8.03 25.46 8.3 Q 25.89 8.57 26.15 9.06 Q 26.42 9.55 26.42 10.24 Q 26.42 11.31 25.58 11.95 Q 24.75 12.6 23.37 12.6 Z M 27.69 12.51 L 27.69 6.46 L 28.71 6.46 L 28.71 7.6 Q 29.22 6.36 30.53 6.36 Q 31.28 6.36 31.81 6.7 Q 32.34 7.03 32.5 7.63 Q 32.75 7.07 33.27 6.72 Q 33.8 6.36 34.46 6.36 Q 35.43 6.36 36 6.93 Q 36.57 7.49 36.57 8.45 L 36.57 12.51 L 35.55 12.51 L 35.55 8.65 Q 35.55 8.02 35.2 7.64 Q 34.85 7.26 34.23 7.26 Q 33.47 7.26 33.05 7.87 Q 32.63 8.49 32.63 9.47 L 32.63 12.51 L 31.61 12.51 L 31.61 8.65 Q 31.61 8.02 31.27 7.64 Q 30.93 7.26 30.3 7.26 Q 29.55 7.26 29.13 7.87 Q 28.71 8.49 28.71 9.47 L 28.71 12.51 Z M 40.79 12.6 Q 39.42 12.6 38.64 11.73 Q 37.87 10.86 37.87 9.48 Q 37.87 8.1 38.64 7.23 Q 39.41 6.36 40.77 6.36 Q 41.37 6.36 41.92 6.63 Q 42.47 6.89 42.75 7.32 L 42.75 4.01 L 43.77 4.01 L 43.77 12.51 L 42.75 12.51 L 42.75 11.63 Q 42.55 12.05 42 12.33 Q 41.45 12.6 40.79 12.6 Z M 39.45 11.08 Q 39.45 11.08 39.72 11.39 Q 39.99 11.69 40.88 11.69 Q 41.77 11.69 42.31 11.08 Q 42.85 10.48 42.85 9.48 Q 42.85 8.49 42.31 7.88 Q 41.77 7.27 40.88 7.27 Q 39.99 7.27 39.45 7.88 Q 38.91 8.49 38.91 9.48 Q 38.91 10.48 39.45 11.08 Z" transform="matrix(1, 0, 0, 1, 3.246656, 10.473237)" style="fill: rgb(0, 0, 0);"/>
  <path d="M 1.75 26.72 L 0.11 26.72 L 0.11 2.41 L 11.71 2.41 Q 14.21 2.41 15.98 4.3 Q 17.74 6.14 17.74 8.8 Q 17.74 11.14 16.67 12.86 Q 15.57 14.58 13.93 14.87 Q 15.44 15.28 16.39 17.45 Q 17.33 19.63 17.33 22.7 Q 17.33 24.42 17.41 25.28 Q 17.49 26.31 17.74 26.72 L 16.1 26.72 Q 15.69 26.23 15.57 24.92 L 15.44 21.43 Q 15.44 18.97 14.25 17.21 Q 13.11 15.49 11.42 15.49 L 1.75 15.49 L 1.75 26.72 Z M 1.75 13.97 L 11.42 13.97 Q 13.35 13.97 14.75 12.49 Q 16.1 11.06 16.1 8.97 Q 16.1 6.92 14.75 5.44 Q 13.35 4.01 11.42 4.01 L 1.75 4.01 L 1.75 13.97 Z" transform="matrix(1.126824, 0, 0, 1, 0.109692, -1.764539)" style="fill: rgb(0, 0, 0);"/>
</svg>